<svg width="21" height="21" viewBox="0 0 21 21" fill="none" xmlns="http://www.w3.org/2000/svg">
<g clip-path="url(#clip0_711_1319)">
<path d="M11.3194 16.3351L20.6624 6.98799C20.8787 6.7718 20.9978 6.4832 20.9978 6.17548C20.9978 5.86775 20.8787 5.57915 20.6624 5.36295L19.9745 4.67457C19.5263 4.22663 18.7978 4.22661 18.3502 4.67453L10.5045 12.5236L2.65014 4.66543C2.43387 4.44923 2.14557 4.32986 1.83815 4.32985C1.5304 4.32984 1.2421 4.4492 1.02566 4.66539L0.337942 5.35375C0.121675 5.5701 0.00253289 5.85853 0.00253288 6.16626C0.00253287 6.47398 0.121675 6.76258 0.337942 6.97878L9.68947 16.3351C9.90642 16.5518 10.1961 16.6708 10.504 16.6702C10.8131 16.6709 11.1026 16.5518 11.3194 16.3351Z" fill="white"/>
</g>
<defs>
<clipPath id="clip0_711_1319">
<rect width="21" height="21" fill="white" transform="translate(0.000244141)"/>
</clipPath>
</defs>
</svg>
